# xmcd
#
# Track frame offsets:
#	150
#	11429
#	23292
#	33281
#	43401
#	54032
#	65246
#	75322
#	91652
#	103526
#	115052
#	128506
#	136810
#	148074
#	157898
#	169479
#	179431
#	187072
#	197864
#	208118
#	219899
#	233401
#	246122
#	255911
#
# Disc length: 3751 seconds
#
# Revision: 0
# Processed by: cddbd v1.5.2PL0 Copyright (c) Steve Scherf et al.
# Submitted via: SynApp - FreeCDDB Version: 2.3
#
DISCID=350ea518
DTITLE=Elvis Presley - ELVIS PRESLEY -- MESS, BLUES
DYEAR=0000
DGENRE=Blues
TTITLE0=Elvis Presley - TRYING TO GET TO YOU
TTITLE1=Elvis Presley - LIKE A BABY
TTITLE2=Elvis Presley - I WANT TO BE FREE
TTITLE3=Elvis Presley - MEAN WOMAN BLUES
TTITLE4=Elvis Presley - AIN`T THAT LOVING YOU BABY
TTITLE5=Elvis Presley - ONE NIGHT
TTITLE6=Elvis Presley - TROUBLE
TTITLE7=Elvis Presley - RECONSIDER BABY
TTITLE8=Elvis Presley - A MESS OF BLUES
TTITLE9=Elvis Presley - GIVE ME THE RIGHT
TTITLE10=Elvis Presley - SUCH A NIGHT
TTITLE11=Elvis Presley - WHEN IT RAINS IT REALLY POURS
TTITLE12=Elvis Presley - LITTLE SISTER
TTITLE13=Elvis Presley - SO GLAD YOU`RE MINE
TTITLE14=Elvis Presley - BIG BOSS MAN
TTITLE15=Elvis Presley - I WANT YOU WITH ME
TTITLE16=Elvis Presley - BABY WHAT YOU WANT ME TO DO
TTITLE17=Elvis Presley - SANTA CLAUS IS BACK IN TOWN
TTITLE18=Elvis Presley - STUCK ON YOU
TTITLE19=Elvis Presley - I FEEL SO BAD
TTITLE20=Elvis Presley - WHAT`D I SAY
TTITLE21=Elvis Presley - TOMORROW NIGHT
TTITLE22=Elvis Presley - IT FEELS TO RIGHT
TTITLE23=Elvis Presley - MEERY CHRISTMAS BABY
EXTD=
EXTT0=
EXTT1=
EXTT2=
EXTT3=
EXTT4=
EXTT5=
EXTT6=
EXTT7=
EXTT8=
EXTT9=
EXTT10=
EXTT11=
EXTT12=
EXTT13=
EXTT14=
EXTT15=
EXTT16=
EXTT17=
EXTT18=
EXTT19=
EXTT20=
EXTT21=
EXTT22=
EXTT23=
PLAYORDER=
